<svg xmlns="http://www.w3.org/2000/svg" width="1200" height="630" viewBox="0 0 1200 630">
  <defs>
    <linearGradient id="bg" x1="0%" y1="0%" x2="100%" y2="100%">
      <stop offset="0%" stop-color="#132A54"/>
      <stop offset="100%" stop-color="#0A1D3F"/>
    </linearGradient>
  </defs>
  <rect width="1200" height="630" fill="url(#bg)"/>
  <!-- Brain outline -->
  <ellipse cx="600" cy="280" rx="120" ry="100" fill="none" stroke="#00BBD3" stroke-width="2" opacity="0.25"/>
  <ellipse cx="600" cy="280" rx="80" ry="65" fill="none" stroke="#00BBD3" stroke-width="1.5" opacity="0.15"/>
  <!-- Neural network nodes -->
  <circle cx="550" cy="250" r="8" fill="#00BBD3" opacity="0.4"/>
  <circle cx="650" cy="250" r="8" fill="#00BBD3" opacity="0.4"/>
  <circle cx="600" cy="300" r="8" fill="#00BBD3" opacity="0.4"/>
  <circle cx="530" cy="300" r="6" fill="#00BBD3" opacity="0.3"/>
  <circle cx="670" cy="300" r="6" fill="#00BBD3" opacity="0.3"/>
  <circle cx="570" cy="340" r="6" fill="#00BBD3" opacity="0.3"/>
  <circle cx="630" cy="340" r="6" fill="#00BBD3" opacity="0.3"/>
  <!-- Connections -->
  <line x1="550" y1="250" x2="600" y2="300" stroke="#00BBD3" stroke-width="1" opacity="0.3"/>
  <line x1="650" y1="250" x2="600" y2="300" stroke="#00BBD3" stroke-width="1" opacity="0.3"/>
  <line x1="530" y1="300" x2="570" y2="340" stroke="#00BBD3" stroke-width="1" opacity="0.3"/>
  <line x1="670" y1="300" x2="630" y2="340" stroke="#00BBD3" stroke-width="1" opacity="0.3"/>
  <line x1="600" y1="300" x2="570" y2="340" stroke="#00BBD3" stroke-width="1" opacity="0.3"/>
  <line x1="600" y1="300" x2="630" y2="340" stroke="#00BBD3" stroke-width="1" opacity="0.3"/>
  <line x1="550" y1="250" x2="530" y2="300" stroke="#00BBD3" stroke-width="1" opacity="0.3"/>
  <line x1="650" y1="250" x2="670" y2="300" stroke="#00BBD3" stroke-width="1" opacity="0.3"/>
  <!-- Shield (ethics) -->
  <path d="M600 380 L630 395 L630 430 C630 455 600 470 600 470 C600 470 570 455 570 430 L570 395 Z" fill="none" stroke="#00BBD3" stroke-width="2" opacity="0.5"/>
  <path d="M590 425 L598 433 L615 416" stroke="#00BBD3" stroke-width="2.5" fill="none" opacity="0.6"/>
  <!-- Heartbeat line -->
  <polyline points="400,315 440,315 460,315 470,280 480,350 490,315 530,315" fill="none" stroke="#00BBD3" stroke-width="2" opacity="0.3"/>
  <polyline points="670,315 710,315 730,315 740,280 750,350 760,315 800,315" fill="none" stroke="#00BBD3" stroke-width="2" opacity="0.3"/>
</svg>
